<svg width="300" height="40" viewBox="0 0 300 40" fill="none" xmlns="http://www.w3.org/2000/svg">
<path d="M15.8674 22.2C16.6674 22.2 17.5154 22.392 18.4114 22.776C19.3394 23.128 20.2034 23.576 21.0034 24.12H20.9554C21.7874 24.728 22.4274 25.512 22.8754 26.472C23.3234 27.432 23.5474 28.584 23.5474 29.928V31.368C23.5474 33.992 22.6834 35.928 20.9554 37.176C20.1234 37.816 19.2754 38.28 18.4114 38.568C17.5474 38.856 16.6994 39 15.8674 39H7.70738C6.87538 39 6.02738 38.856 5.16338 38.568C4.29938 38.28 3.45138 37.816 2.61938 37.176C0.891375 35.96 0.027375 34.024 0.027375 31.368V30.792C0.027375 29.416 0.907375 28.744 2.66738 28.776C4.45938 28.776 5.35538 29.448 5.35538 30.792V31.32C5.35538 32.088 5.59538 32.808 6.07538 33.48C6.55538 34.152 7.40338 34.488 8.61938 34.488H14.9554C16.1714 34.488 17.0194 34.152 17.4994 33.48C17.9794 32.808 18.2194 32.088 18.2194 31.32V29.976C18.2194 29.56 18.1554 29.16 18.0274 28.776C17.9314 28.392 17.7554 28.056 17.4994 27.768C17.2434 27.448 16.9074 27.192 16.4914 27C16.0754 26.808 15.5634 26.712 14.9554 26.712H7.94738C6.31538 26.712 4.60338 26.136 2.81138 24.984C1.11538 23.896 0.267375 22.024 0.267375 19.368V17.736C0.267375 16.456 0.491375 15.336 0.939375 14.376C1.38738 13.384 2.02738 12.584 2.85938 11.976H2.81138C3.61138 11.432 4.45938 10.984 5.35538 10.632C6.25138 10.28 7.11538 10.104 7.94738 10.104H15.6274C16.4594 10.104 17.3074 10.28 18.1714 10.632C19.0674 10.984 19.9314 11.432 20.7634 11.976H20.7154C21.5474 12.584 22.1874 13.384 22.6354 14.376C23.0834 15.336 23.3074 16.456 23.3074 17.736V18.168C23.3074 18.84 23.0834 19.336 22.6354 19.656C22.1874 19.944 21.5314 20.104 20.6674 20.136C18.9074 20.168 18.0274 19.512 18.0274 18.168V17.784C18.0274 16.984 17.7714 16.264 17.2594 15.624C16.7794 14.952 15.9474 14.616 14.7634 14.616H8.81138C7.62738 14.616 6.77938 14.952 6.26738 15.624C5.78738 16.264 5.54738 16.984 5.54738 17.784V18.936C5.54738 19.768 5.78738 20.52 6.26738 21.192C6.77938 21.864 7.62738 22.2 8.81138 22.2H15.8674ZM52.8866 31.368C52.8866 33.992 52.0226 35.928 50.2946 37.176C48.5986 38.392 46.9026 39 45.2066 39H37.1426C35.4466 39 33.7986 38.392 32.1986 37.176C31.4306 36.536 30.8386 35.736 30.4226 34.776C30.0066 33.784 29.7986 32.648 29.7986 31.368V17.688C29.7986 15.096 30.5986 13.176 32.1986 11.928C32.9986 11.352 33.8146 10.904 34.6466 10.584C35.5106 10.232 36.3426 10.056 37.1426 10.056H45.2066C45.9746 10.056 46.8226 10.216 47.7506 10.536C48.6786 10.824 49.5426 11.224 50.3426 11.736C51.1106 12.28 51.7186 13.032 52.1666 13.992C52.6466 14.952 52.8866 16.088 52.8866 17.4V19.8C52.8866 21.336 52.0066 22.104 50.2466 22.104C48.4866 22.104 47.6066 21.336 47.6066 19.8V17.736C47.6066 16.936 47.3506 16.216 46.8386 15.576C46.3586 14.904 45.5266 14.568 44.3426 14.568H38.3426C37.1586 14.568 36.3106 14.904 35.7986 15.576C35.3186 16.216 35.0786 16.936 35.0786 17.736V31.32C35.0786 32.088 35.3186 32.808 35.7986 33.48C36.3106 34.152 37.1586 34.488 38.3426 34.488H44.3426C45.5266 34.488 46.3586 34.152 46.8386 33.48C47.3506 32.808 47.6066 32.088 47.6066 31.32V29.112C47.6066 27.608 48.4866 26.856 50.2466 26.856C52.0066 26.856 52.8866 27.608 52.8866 29.112V31.368ZM64.092 36.984C64.092 38.52 63.212 39.288 61.452 39.288C59.628 39.288 58.716 38.52 58.716 36.984V17.112C58.716 14.488 59.5 12.664 61.068 11.64C62.636 10.616 64.444 10.104 66.492 10.104H71.964C73.148 10.104 73.74 10.856 73.74 12.36C73.804 13.864 73.212 14.616 71.964 14.616H66.876C65.724 14.616 64.972 14.84 64.62 15.288C64.268 15.736 64.092 16.36 64.092 17.16V36.984ZM83.0786 31.32C83.0786 32.088 83.3186 32.808 83.7986 33.48C84.3106 34.152 85.1586 34.488 86.3426 34.488H92.3426C93.5266 34.488 94.3586 34.2 94.8386 33.624C95.3506 33.016 95.6066 32.328 95.6066 31.56V31.032C95.6066 29.528 96.4866 28.776 98.2466 28.776C100.007 28.776 100.887 29.528 100.887 31.032V31.608C100.887 32.952 100.663 34.056 100.215 34.92C99.7986 35.784 99.1586 36.536 98.2946 37.176C96.5986 38.392 94.9026 39 93.2066 39H85.1426C83.4466 39 81.7986 38.392 80.1986 37.176C79.4306 36.536 78.8386 35.736 78.4226 34.776C78.0066 33.784 77.7986 32.648 77.7986 31.368V17.688C77.7986 15.096 78.5986 13.176 80.1986 11.928C80.9986 11.352 81.8146 10.904 82.6466 10.584C83.5106 10.232 84.3426 10.056 85.1426 10.056H93.2066C93.9746 10.056 94.8226 10.216 95.7506 10.536C96.6786 10.824 97.5426 11.224 98.3426 11.736C99.1106 12.28 99.7186 13.032 100.167 13.992C100.647 14.952 100.887 16.088 100.887 17.4V23.88C100.887 24.616 100.663 25.272 100.215 25.848C99.7986 26.424 99.0146 26.712 97.8626 26.712H87.4946C86.3426 26.712 85.7346 25.96 85.6706 24.456C85.6706 22.952 86.2786 22.2 87.4946 22.2H95.6546L95.6066 17.736C95.6066 16.936 95.3506 16.216 94.8386 15.576C94.3586 14.904 93.5266 14.568 92.3426 14.568H86.3426C85.1586 14.568 84.3106 14.904 83.7986 15.576C83.3186 16.216 83.0786 16.936 83.0786 17.736V31.32ZM112.282 31.32C112.282 32.088 112.522 32.808 113.002 33.48C113.514 34.152 114.362 34.488 115.546 34.488H121.546C122.73 34.488 123.562 34.2 124.042 33.624C124.554 33.016 124.81 32.328 124.81 31.56V31.032C124.81 29.528 125.69 28.776 127.45 28.776C129.21 28.776 130.09 29.528 130.09 31.032V31.608C130.09 32.952 129.866 34.056 129.418 34.92C129.002 35.784 128.362 36.536 127.498 37.176C125.802 38.392 124.106 39 122.41 39H114.346C112.65 39 111.002 38.392 109.402 37.176C108.634 36.536 108.042 35.736 107.626 34.776C107.21 33.784 107.002 32.648 107.002 31.368V17.688C107.002 15.096 107.802 13.176 109.402 11.928C110.202 11.352 111.018 10.904 111.85 10.584C112.714 10.232 113.546 10.056 114.346 10.056H122.41C123.178 10.056 124.026 10.216 124.954 10.536C125.882 10.824 126.746 11.224 127.546 11.736C128.314 12.28 128.922 13.032 129.37 13.992C129.85 14.952 130.09 16.088 130.09 17.4V23.88C130.09 24.616 129.866 25.272 129.418 25.848C129.002 26.424 128.218 26.712 127.066 26.712H116.698C115.546 26.712 114.938 25.96 114.874 24.456C114.874 22.952 115.482 22.2 116.698 22.2H124.858L124.81 17.736C124.81 16.936 124.554 16.216 124.042 15.576C123.562 14.904 122.73 14.568 121.546 14.568H115.546C114.362 14.568 113.514 14.904 113.002 15.576C112.522 16.216 112.282 16.936 112.282 17.736V31.32ZM141.485 36.984C141.485 38.52 140.605 39.288 138.845 39.288C137.085 39.288 136.205 38.52 136.205 36.984V17.688C136.205 16.376 136.413 15.24 136.829 14.28C137.245 13.32 137.901 12.536 138.797 11.928C140.493 10.712 142.189 10.104 143.885 10.104H151.613C153.245 10.104 154.941 10.712 156.701 11.928C158.429 13.144 159.293 15.064 159.293 17.688V36.984C159.293 38.52 158.413 39.288 156.653 39.288C154.893 39.288 154.013 38.52 154.013 36.984V18.12C154.013 17.288 153.757 16.488 153.245 15.72L153.293 15.768C152.877 15 152.029 14.616 150.749 14.616H144.749C143.437 14.616 142.573 15 142.157 15.768C141.709 16.44 141.485 17.224 141.485 18.12V36.984ZM171.79 14.616V32.088C171.79 32.92 171.966 33.56 172.318 34.008C172.67 34.456 173.422 34.68 174.574 34.68H175.822C177.07 34.68 177.662 35.416 177.598 36.888C177.598 38.392 177.006 39.144 175.822 39.144H174.238C173.214 39.144 172.254 39.016 171.358 38.76C170.462 38.472 169.598 38.072 168.766 37.56V37.608C167.198 36.584 166.414 34.76 166.414 32.136V14.616H164.542C163.39 14.616 162.782 13.864 162.718 12.36C162.718 10.856 163.326 10.104 164.542 10.104H166.414V4.968C166.414 3.432 167.326 2.664 169.15 2.664C170.91 2.664 171.79 3.432 171.79 4.968V10.104H175.774C177.022 10.104 177.614 10.856 177.55 12.36C177.55 13.864 176.958 14.616 175.774 14.616H171.79ZM186.951 36.984C186.951 38.52 186.071 39.288 184.311 39.288C182.487 39.288 181.575 38.52 181.575 36.984V17.112C181.575 14.488 182.359 12.664 183.927 11.64C185.495 10.616 187.303 10.104 189.351 10.104H194.823C196.007 10.104 196.599 10.856 196.599 12.36C196.663 13.864 196.071 14.616 194.823 14.616H189.735C188.583 14.616 187.831 14.84 187.479 15.288C187.127 15.736 186.951 16.36 186.951 17.16V36.984ZM207.906 39C206.914 39 205.97 38.872 205.074 38.616C204.178 38.328 203.314 37.928 202.482 37.416V37.464C200.914 36.472 200.13 34.648 200.13 31.992V29.64C200.13 28.328 200.354 27.192 200.802 26.232C201.282 25.24 201.938 24.456 202.77 23.88H202.722C203.522 23.336 204.37 22.936 205.266 22.68C206.162 22.392 207.026 22.248 207.858 22.248H218.466V17.784C218.466 16.984 218.21 16.264 217.698 15.624C217.218 14.952 216.386 14.616 215.202 14.616H209.586C208.37 14.616 207.522 14.92 207.042 15.528C206.594 16.104 206.37 16.792 206.37 17.592V17.976C206.37 19.64 205.474 20.472 203.682 20.472C201.89 20.472 200.994 19.64 200.994 17.976V17.544C200.994 16.232 201.218 15.128 201.666 14.232C202.146 13.336 202.786 12.584 203.586 11.976H203.538C204.37 11.432 205.234 10.984 206.13 10.632C207.058 10.28 207.938 10.104 208.77 10.104H216.066C216.866 10.104 217.714 10.28 218.61 10.632C219.538 10.984 220.402 11.432 221.202 11.976H221.154C221.986 12.584 222.626 13.384 223.074 14.376C223.522 15.336 223.746 16.456 223.746 17.736V36.984C223.746 38.52 222.866 39.288 221.106 39.288C220.754 39.288 220.418 39.272 220.098 39.24C219.81 39.208 219.538 39.128 219.282 39C219.058 38.84 218.866 38.632 218.706 38.376C218.578 38.088 218.514 37.72 218.514 37.272L218.466 26.76H208.77C208.066 26.76 207.522 26.84 207.138 27C206.754 27.16 206.45 27.416 206.226 27.768C205.97 28.312 205.778 28.744 205.65 29.064C205.554 29.352 205.506 29.688 205.506 30.072V31.944C205.506 32.776 205.746 33.416 206.226 33.864C206.738 34.28 207.602 34.488 208.818 34.488H214.194C215.378 34.488 215.97 35.24 215.97 36.744C215.97 37.384 215.826 37.928 215.538 38.376C215.25 38.792 214.802 39 214.194 39H207.906ZM253.043 31.368C253.043 33.992 252.179 35.928 250.451 37.176C248.755 38.392 247.059 39 245.363 39H237.299C235.603 39 233.955 38.392 232.355 37.176C231.587 36.536 230.995 35.736 230.579 34.776C230.163 33.784 229.955 32.648 229.955 31.368V17.688C229.955 15.096 230.755 13.176 232.355 11.928C233.155 11.352 233.971 10.904 234.803 10.584C235.667 10.232 236.499 10.056 237.299 10.056H245.363C246.131 10.056 246.979 10.216 247.907 10.536C248.835 10.824 249.699 11.224 250.499 11.736C251.267 12.28 251.875 13.032 252.323 13.992C252.803 14.952 253.043 16.088 253.043 17.4V19.8C253.043 21.336 252.163 22.104 250.403 22.104C248.643 22.104 247.763 21.336 247.763 19.8V17.736C247.763 16.936 247.507 16.216 246.995 15.576C246.515 14.904 245.683 14.568 244.499 14.568H238.499C237.315 14.568 236.467 14.904 235.955 15.576C235.475 16.216 235.235 16.936 235.235 17.736V31.32C235.235 32.088 235.475 32.808 235.955 33.48C236.467 34.152 237.315 34.488 238.499 34.488H244.499C245.683 34.488 246.515 34.152 246.995 33.48C247.507 32.808 247.763 32.088 247.763 31.32V29.112C247.763 27.608 248.643 26.856 250.403 26.856C252.163 26.856 253.043 27.608 253.043 29.112V31.368ZM264.344 30.984V37.08C264.344 38.584 263.464 39.336 261.704 39.336C259.944 39.336 259.064 38.584 259.064 37.08V2.904C259.064 1.368 259.944 0.599999 261.704 0.599999C263.464 0.599999 264.344 1.368 264.344 2.904V23.256C265.144 22.296 266.024 21.272 266.984 20.184C267.976 19.064 268.952 17.944 269.912 16.824C270.904 15.672 271.88 14.552 272.84 13.464C273.8 12.344 274.696 11.304 275.528 10.344V10.392C276.104 9.72 276.68 9.384 277.256 9.384C277.576 9.384 277.88 9.464 278.168 9.624C278.488 9.752 278.824 9.944 279.176 10.2H279.128C279.896 10.84 280.28 11.48 280.28 12.12C280.28 12.344 280.232 12.6 280.136 12.888C280.04 13.144 279.88 13.368 279.656 13.56L264.344 30.984ZM280.376 35.784C280.6 36.2 280.712 36.632 280.712 37.08C280.712 37.912 280.232 38.536 279.272 38.952C278.632 39.336 278.056 39.528 277.544 39.528C277.192 39.528 276.856 39.4 276.536 39.144C276.216 38.92 275.96 38.632 275.768 38.28L270.968 29.016C270.68 28.536 270.536 28.056 270.536 27.576C270.536 26.776 270.952 26.104 271.784 25.56C272.008 25.4 272.232 25.256 272.456 25.128C272.712 25 272.984 24.904 273.272 24.84C273.624 24.776 273.96 24.84 274.28 25.032C274.6 25.224 274.872 25.48 275.096 25.8L280.376 35.784ZM289.842 36.984C289.842 38.52 288.962 39.288 287.202 39.288C285.378 39.288 284.466 38.52 284.466 36.984V17.112C284.466 14.488 285.25 12.664 286.818 11.64C288.386 10.616 290.194 10.104 292.242 10.104H297.714C298.898 10.104 299.49 10.856 299.49 12.36C299.554 13.864 298.962 14.616 297.714 14.616H292.626C291.474 14.616 290.722 14.84 290.37 15.288C290.018 15.736 289.842 16.36 289.842 17.16V36.984Z" fill="#E2DDE8"/>
</svg>
